# xmcd
#
# Track frame offsets:
#	150
#	3160
#	44130
#	103561
#	157336
#	205848
#	236701
#	278196
#
# Disc length: 3910 seconds
#
# Revision: 1
# Processed by: cddbd v1.5.2PL0 Copyright (c) Steve Scherf et al.
# Submitted via: audiograbber 1.82.01
#
DISCID=6e0f4408
DTITLE=alex - ao vivo
DYEAR=2008
DGENRE=Pop
TTITLE0=oiii
TTITLE1=oi 1
TTITLE2=oi 2
TTITLE3=oi 3
TTITLE4=oi 4
TTITLE5=oi 5
TTITLE6=oi 6
TTITLE7=oi7
EXTD=
EXTT0=
EXTT1=
EXTT2=
EXTT3=
EXTT4=
EXTT5=
EXTT6=
EXTT7=
PLAYORDER=
